<svg viewBox="0 0 481 400" fill="none" xmlns="http://www.w3.org/2000/svg">
<path d="M474.647 99.1807C504.656 181.735 424.208 286.805 294.822 333.913C165.437 381.021 36.2817 352.271 6.27247 269.717C-23.7367 187.162 56.8264 82.0925 186.097 35.0999C315.367 -11.8927 444.638 16.7416 474.647 99.1807Z" fill="url(#dashboard-screens-0_linear)" fill-opacity="0.7"/>
<path d="M174.786 133.935H370.076C372.154 133.935 374 132.203 374 130.009V4.04139C374 1.9631 372.269 0.115723 370.076 0.115723H174.786C172.708 0.115723 170.861 1.84764 170.861 4.04139V130.125C170.861 132.203 172.708 133.935 174.786 133.935Z" fill="url(#dashboard-screens-1_linear)"/>
<path d="M174.67 0H370.076C372.154 0 374 1.73191 374 4.15659V8.31319H170.861V4.15659C170.861 1.73191 172.593 0 174.67 0Z" fill="#DDE5ED"/>
<path fill-rule="evenodd" clip-rule="evenodd" d="M239.767 41.9119L235.496 44.1057L236.304 39.3718L232.842 36.0234L237.574 35.3306L239.652 31.0586L241.729 35.3306L246.461 36.0234L242.999 39.3718L243.807 44.1057L239.767 41.9119Z" fill="#FF4633"/>
<path fill-rule="evenodd" clip-rule="evenodd" d="M255.118 41.9122L250.847 44.1059L251.655 39.372L248.192 36.0237L252.925 35.3309L255.118 31.1743L257.195 35.4464L261.927 36.1391L258.465 39.4875L259.273 44.2214L255.118 41.9122Z" fill="#FF4633"/>
<path fill-rule="evenodd" clip-rule="evenodd" d="M270.353 41.9119L266.083 44.1057L266.891 39.3718L263.428 36.0234L268.16 35.3306L270.238 31.0586L272.316 35.3306L277.048 36.0234L273.585 39.3718L274.393 44.1057L270.353 41.9119Z" fill="#D2D3D6"/>
<path fill-rule="evenodd" clip-rule="evenodd" d="M285.704 41.9119L281.433 44.1057L282.241 39.3718L278.779 36.0234L283.511 35.3306L285.589 31.0586L287.666 35.3306L292.398 36.0234L288.936 39.3718L289.744 44.1057L285.704 41.9119Z" fill="#D2D3D6"/>
<path fill-rule="evenodd" clip-rule="evenodd" d="M300.939 41.9119L296.669 44.1057L297.477 39.3718L294.014 36.0234L298.746 35.3306L300.824 31.0586L302.901 35.3306L307.634 36.0234L304.171 39.3718L304.979 44.1057L300.939 41.9119Z" fill="#D2D3D6"/>
<path fill-rule="evenodd" clip-rule="evenodd" d="M170.861 65.2353L213.913 110.958L269.199 80.5916L318.599 93.1769L374.116 63.5034V133.588H170.861V65.2353Z" fill="url(#dashboard-screens-2_linear)"/>
<path d="M170.63 64.658L214.49 110.842L269.892 80.8226L319.06 92.5996L373.192 63.5034" stroke="#FF4633" stroke-width="1.617" stroke-linecap="round" stroke-linejoin="round"/>
<path d="M214.259 114.191C216.299 114.191 217.952 112.537 217.952 110.497C217.952 108.456 216.299 106.802 214.259 106.802C212.219 106.802 210.565 108.456 210.565 110.497C210.565 112.537 212.219 114.191 214.259 114.191Z" fill="white"/>
<path d="M214.49 112.344C215.382 112.344 216.106 111.62 216.106 110.727C216.106 109.835 215.382 109.111 214.49 109.111C213.597 109.111 212.874 109.835 212.874 110.727C212.874 111.62 213.597 112.344 214.49 112.344Z" fill="#FF4633"/>
<path d="M135.889 281.032H295.746C297.708 281.032 299.439 279.531 299.439 277.684V167.996C299.439 166.148 297.708 164.647 295.746 164.647H135.889C133.927 164.647 132.196 166.148 132.196 167.996V277.684C132.196 279.647 133.927 281.032 135.889 281.032Z" fill="url(#dashboard-screens-3_linear)"/>
<path d="M135.889 164.532H295.746C297.708 164.532 299.439 166.264 299.439 168.226V171.921H132.196V168.226C132.311 166.264 133.927 164.532 135.889 164.532Z" fill="#DDE5ED"/>
<path d="M202.486 194.206H267.583C268.276 194.206 268.853 194.783 268.853 195.476V200.325C268.853 201.018 268.276 201.596 267.583 201.596H202.486C201.794 201.596 201.217 201.018 201.217 200.325V195.476C201.217 194.783 201.794 194.206 202.486 194.206Z" fill="white"/>
<path d="M202.486 241.198H267.583C268.276 241.198 268.853 241.776 268.853 242.468V247.318C268.853 248.01 268.276 248.588 267.583 248.588H202.486C201.794 248.588 201.217 248.01 201.217 247.318V242.468C201.217 241.776 201.794 241.198 202.486 241.198Z" fill="white"/>
<path d="M202.486 207.022H251.194C251.886 207.022 252.463 207.599 252.463 208.292V213.141C252.463 213.834 251.886 214.411 251.194 214.411H202.486C201.794 214.411 201.217 213.834 201.217 213.141V208.292C201.217 207.599 201.794 207.022 202.486 207.022Z" fill="white"/>
<path d="M173.17 210.717V241.776" stroke="#DDE5ED" stroke-width="0.8624"/>
<path fill-rule="evenodd" clip-rule="evenodd" d="M176.517 209.793L173.054 204.02C172.824 203.673 172.362 203.673 172.247 204.02L168.784 209.793C168.553 210.139 168.784 210.485 169.246 210.485H176.171C176.402 210.485 176.632 210.139 176.517 209.793ZM172.593 205.867C172.708 205.867 172.824 205.867 172.824 205.982C172.824 206.098 172.939 206.098 172.939 206.213C172.939 206.329 172.939 206.444 172.939 206.791L172.824 208.292C172.824 208.407 172.824 208.407 172.708 208.407C172.593 208.407 172.593 208.407 172.593 208.292L172.477 206.791C172.477 206.444 172.477 206.329 172.477 206.213C172.247 206.098 172.362 205.867 172.593 205.867ZM172.824 209.331C172.708 209.446 172.708 209.446 172.593 209.446C172.477 209.446 172.477 209.446 172.362 209.331C172.247 209.215 172.247 209.215 172.247 209.1C172.247 208.984 172.247 208.984 172.362 208.869C172.477 208.753 172.477 208.753 172.593 208.753C172.708 208.753 172.824 208.753 172.824 208.869C172.939 208.984 172.939 208.984 172.939 209.1C172.939 209.215 172.939 209.331 172.824 209.331Z" fill="white"/>
<path d="M173.054 215.566C177.453 215.566 181.018 212 181.018 207.6C181.018 203.2 177.453 199.633 173.054 199.633C168.656 199.633 165.09 203.2 165.09 207.6C165.09 212 168.656 215.566 173.054 215.566Z" fill="#FF4633"/>
<path fill-rule="evenodd" clip-rule="evenodd" d="M176.978 209.793L173.516 204.02C173.285 203.674 172.823 203.674 172.708 204.02L169.245 209.793C169.015 210.139 169.245 210.486 169.707 210.486H176.632C176.863 210.486 177.094 210.139 176.978 209.793ZM173.054 205.867C173.17 205.867 173.285 205.867 173.285 205.983C173.285 206.098 173.4 206.098 173.4 206.214C173.4 206.329 173.4 206.445 173.4 206.791L173.285 208.292C173.285 208.408 173.285 208.408 173.17 208.408C173.054 208.408 173.054 208.408 173.054 208.292L172.939 206.791C172.939 206.445 172.939 206.329 172.939 206.214C172.708 206.098 172.823 205.867 173.054 205.867ZM173.285 209.331C173.17 209.447 173.17 209.447 173.054 209.447C172.939 209.447 172.939 209.447 172.823 209.331C172.708 209.216 172.708 209.216 172.708 209.1C172.708 208.985 172.708 208.985 172.823 208.869C172.939 208.754 172.939 208.754 173.054 208.754C173.17 208.754 173.285 208.754 173.285 208.869C173.4 208.985 173.4 208.985 173.4 209.1C173.4 209.216 173.4 209.331 173.285 209.331Z" fill="white"/>
<path fill-rule="evenodd" clip-rule="evenodd" d="M176.517 245.932L173.054 240.159C172.824 239.813 172.362 239.813 172.247 240.159L168.784 245.932C168.553 246.279 168.784 246.625 169.246 246.625H176.171C176.402 246.51 176.632 246.163 176.517 245.932ZM172.593 242.007C172.708 242.007 172.824 242.007 172.824 242.122C172.824 242.237 172.939 242.237 172.939 242.353C172.939 242.468 172.939 242.584 172.939 242.93L172.824 244.431C172.824 244.547 172.824 244.547 172.708 244.547C172.593 244.547 172.593 244.547 172.593 244.431L172.477 242.93C172.477 242.584 172.477 242.468 172.477 242.353C172.247 242.122 172.362 242.007 172.593 242.007ZM172.824 245.47C172.708 245.586 172.708 245.586 172.593 245.586C172.477 245.586 172.477 245.586 172.362 245.47C172.247 245.355 172.247 245.355 172.247 245.239C172.247 245.124 172.247 245.124 172.362 245.009C172.477 244.893 172.477 244.893 172.593 244.893C172.708 244.893 172.824 244.893 172.824 245.009C172.939 245.124 172.939 245.124 172.939 245.239C172.939 245.355 172.939 245.355 172.824 245.47Z" fill="white"/>
<path d="M173.054 251.706C177.453 251.706 181.018 248.139 181.018 243.739C181.018 239.339 177.453 235.772 173.054 235.772C168.656 235.772 165.09 239.339 165.09 243.739C165.09 248.139 168.656 251.706 173.054 251.706Z" fill="#FF4633"/>
<path fill-rule="evenodd" clip-rule="evenodd" d="M176.978 245.933L173.516 240.16C173.285 239.813 172.823 239.813 172.708 240.16L169.245 245.933C169.015 246.279 169.245 246.626 169.707 246.626H176.632C176.863 246.51 177.094 246.164 176.978 245.933ZM173.054 242.007C173.17 242.007 173.285 242.007 173.285 242.123C173.285 242.238 173.4 242.238 173.4 242.353C173.4 242.469 173.4 242.584 173.4 242.931L173.285 244.432C173.285 244.547 173.285 244.547 173.17 244.547C173.054 244.547 173.054 244.547 173.054 244.432L172.939 242.931C172.939 242.584 172.939 242.469 172.939 242.353C172.708 242.123 172.823 242.007 173.054 242.007ZM173.285 245.471C173.17 245.586 173.17 245.586 173.054 245.586C172.939 245.586 172.939 245.586 172.823 245.471C172.708 245.355 172.708 245.355 172.708 245.24C172.708 245.125 172.708 245.125 172.823 245.009C172.939 244.894 172.939 244.894 173.054 244.894C173.17 244.894 173.285 244.894 173.285 245.009C173.4 245.125 173.4 245.125 173.4 245.24C173.4 245.355 173.4 245.355 173.285 245.471Z" fill="white"/>
<path d="M337.181 272.026H440.367C442.906 272.026 445.099 269.948 445.099 267.639V163.724C445.099 161.299 442.906 159.336 440.367 159.336H337.181C334.642 159.336 332.449 161.415 332.449 163.724V267.639C332.449 269.948 334.642 272.026 337.181 272.026Z" fill="url(#dashboard-screens-4_linear)"/>
<path d="M337.182 153.679H439.79C442.329 153.679 444.522 155.872 444.522 158.413V163.147H332.565V158.413C332.449 155.757 334.412 153.679 337.182 153.679Z" fill="#DDE5ED"/>
<path d="M353.225 219.26H372.962L386.12 178.733H411.628L390.852 254.244H425.363" stroke="#FF4633" stroke-width="2.1168" stroke-linecap="round" stroke-linejoin="round"/>
<path d="M352.532 220.184V218.337C352.186 216.143 351.609 212.448 350.686 209.677C349.531 206.329 345.953 200.44 344.684 198.247C343.414 196.63 342.722 194.437 342.722 192.127C342.722 186.239 347.454 181.505 353.34 181.505C359.227 181.505 363.959 186.239 363.959 192.127C363.959 194.321 363.266 196.515 361.997 198.247C360.496 200.44 357.034 206.098 355.995 209.677C355.072 212.218 354.495 215.912 354.148 218.337V220.184H352.532Z" fill="white"/>
<path d="M353.109 199.978C357.125 199.978 360.381 196.67 360.381 192.589C360.381 188.508 357.125 185.199 353.109 185.199C349.093 185.199 345.838 188.508 345.838 192.589C345.838 196.67 349.093 199.978 353.109 199.978Z" fill="#FF4633"/>
<path d="M423.862 254.13V252.282C423.516 250.088 422.939 246.394 422.015 243.623C420.861 240.274 417.283 234.386 416.013 232.192C414.744 230.576 414.051 228.382 414.051 226.073C414.051 220.184 418.783 215.45 424.67 215.45C430.556 215.45 435.289 220.184 435.289 226.073C435.289 228.266 434.596 230.46 433.326 232.192C431.826 234.386 428.363 240.159 427.325 243.623C426.401 246.163 425.824 249.858 425.478 252.282V254.13H423.862Z" fill="white"/>
<path d="M424.324 233.924C428.34 233.924 431.595 230.615 431.595 226.534C431.595 222.453 428.34 219.145 424.324 219.145C420.308 219.145 417.052 222.453 417.052 226.534C417.052 230.615 420.308 233.924 424.324 233.924Z" fill="#FF4633"/>
<path d="M118.807 77.1277C116.383 61.425 105.649 49.648 93.8761 50.918C82.1033 52.1881 75.2935 67.0826 76.9094 82.7852C77.3711 85.2099 78.0636 87.5191 78.7561 89.1356C80.372 97.1024 80.6028 104.03 80.0257 109.457L79.9103 118.809L103.11 121.003L104.033 111.766L103.456 108.533C114.536 106.455 121.231 92.9458 118.807 77.1277Z" fill="#FF7D50"/>
<path d="M60.7505 229.189H141.775C141.775 319.249 105.187 353.772 95.4919 390.257C96.5307 389.218 97.454 389.218 99.3008 388.295C104.148 386.332 112.805 386.332 113.844 388.295C114.882 391.181 110.035 395.107 103.225 397.878C96.4153 400.649 89.7209 400.764 88.6821 397.878C87.6433 386.447 115.69 255.053 96.4153 266.599C90.6443 271.448 95.3765 306.779 79.1023 390.257C80.141 389.218 81.0644 389.218 82.1032 388.295C86.9508 386.332 94.684 386.332 94.684 388.295C95.7227 390.257 90.8751 394.068 85.1041 396.954C79.3331 398.917 73.5621 398.917 72.5233 396.954C73.2158 370.975 58.7884 278.953 60.7505 229.189Z" fill="#07074E"/>
<path d="M113.036 57.6147C112.69 56.2292 111.651 55.0746 110.497 54.0354C106.573 50.8025 101.032 49.6479 95.8386 50.4561C90.7601 51.2643 85.9125 53.9199 82.1036 57.3838C80.6032 58.7693 78.9873 60.2703 77.8331 62.1177C74.6013 66.967 74.1396 72.971 73.9088 78.8595C73.7934 82.3233 74.7167 87.2882 75.2938 90.0592C75.6401 91.7911 77.256 93.2921 79.1027 93.6385C79.9106 93.754 80.7186 93.754 81.4111 93.2921C83.4887 92.253 93.2994 79.5523 93.9919 77.8204C94.6844 76.0884 95.0306 74.1256 96.3003 72.7401C97.9161 70.6618 100.802 70.0845 103.225 69.1608C105.88 68.1216 108.304 66.5052 110.266 64.4269C112.228 62.4641 113.613 60.0394 113.036 57.6147Z" fill="#07074E"/>
<path d="M114.882 57.1533C113.267 52.1884 107.265 49.5328 102.417 48.7246C96.9924 47.9164 91.683 49.071 86.8354 51.6111C82.2186 54.0358 77.7172 57.846 75.2934 62.4645C72.7542 67.1984 72.0616 72.625 71.8308 78.0517C71.7154 80.5918 71.9462 83.132 72.2925 85.6721C72.6387 87.7504 72.7542 90.406 73.7929 92.1379C75.8705 95.7172 80.7181 96.6409 83.7191 93.7544C85.912 91.5606 87.9896 89.1359 89.7209 86.7113C91.5676 84.402 93.4143 81.9774 95.1456 79.4372C96.1844 77.8208 96.2998 75.627 97.5695 73.8951C99.1853 71.8168 102.302 71.355 104.61 70.3158C109.919 68.353 116.267 63.2727 114.882 57.1533C114.421 54.7286 110.612 55.7677 111.189 58.1924C111.651 60.3862 109.919 62.349 108.419 63.85C106.803 65.4664 104.725 66.6211 102.533 67.5447C100.57 68.353 98.6082 68.8148 96.8769 69.9694C95.0302 71.2395 93.876 72.8559 93.1835 75.0497C92.8372 76.0888 92.491 77.128 91.9139 78.1671C91.2214 79.0908 90.6443 79.8991 89.9517 80.8227C88.3359 83.132 86.4891 85.4412 84.6424 87.6349C83.7191 88.6741 83.0265 89.7132 82.1032 90.5215C81.7569 90.8679 81.4107 91.2142 81.0644 91.5606C80.949 91.6761 80.8336 91.7915 80.7181 91.907C80.4873 92.1379 80.949 91.7915 80.6027 91.907C78.6406 92.5998 77.371 90.9833 77.0247 89.2514C76.563 87.1731 76.1013 85.2103 75.9859 83.132C75.5242 78.629 75.8705 73.8951 76.9093 69.7385C78.0635 65.1201 80.4873 61.4253 84.0653 58.4233C87.8742 55.075 92.9527 52.6503 98.0311 52.4194C100.57 52.3039 102.994 52.6503 105.303 53.574C107.496 54.4977 110.266 55.9986 111.074 58.3079C111.997 60.5016 115.69 59.4625 114.882 57.1533Z" fill="#07074E"/>
<path d="M133.696 213.718C133.696 213.718 152.741 248.934 144.43 261.288C136.235 273.642 131.619 232.307 131.619 232.307L133.696 213.718Z" fill="#FF7D50"/>
<path fill-rule="evenodd" clip-rule="evenodd" d="M135.196 127.7C136.812 133.819 121.577 179.08 121.577 179.08C121.577 179.08 121.577 216.605 124.924 220.53C125.847 221.569 126.886 222.724 127.925 223.763C130.695 226.534 133.119 228.959 130.003 229.536C125.732 230.46 59.5964 237.041 60.058 233.115C60.058 233.115 59.0193 231.845 57.4034 229.883C51.517 222.955 37.5511 206.559 32.3572 197.784C26.3554 187.97 35.9353 151.369 39.975 140.054C40.8983 137.745 42.1679 135.551 43.7838 133.819C49.6702 127.469 67.6758 113.267 87.4126 112.459C119.615 111.535 133.581 121.696 135.196 127.7ZM54.287 190.164C52.4403 180.812 50.3628 170.651 49.5548 164.647L49.0931 186.238L57.5188 207.021C56.9417 203.211 55.6721 196.861 54.287 190.164Z" fill="#001BB8"/>
<path d="M114.19 154.602C111.882 163.377 115.806 180.696 115.806 184.853C115.806 189.01 118.115 199.055 119.615 201.826C121.231 204.481 122.847 218.452 122.847 218.452C122.847 218.452 125.386 232.077 128.964 234.155C132.542 236.349 130.58 240.736 130.58 244.085C130.58 247.433 142.468 245.239 145.469 244.085C148.47 242.93 135.081 127.7 135.081 127.7L130.003 124.582C117.076 122.389 116.499 145.943 114.19 154.602Z" fill="#0724A0"/>
<path d="M95.3532 82.6428C96.4361 79.9169 95.7773 77.0963 93.8817 76.3427C91.9861 75.5891 89.5715 77.188 88.4886 79.9139C87.4057 82.6398 88.0645 85.4605 89.9602 86.2141C91.8558 86.9676 94.2703 85.3687 95.3532 82.6428Z" fill="#FF7D50"/>
<defs>
<linearGradient id="dashboard-screens-0_linear" x1="474.684" y1="99.2332" x2="6.94499" y2="269.405" gradientUnits="userSpaceOnUse">
<stop offset="0.0113492" stop-color="#F1F9FD"/>
<stop offset="1" stop-color="#E3F5FF" stop-opacity="0.9"/>
</linearGradient>
<linearGradient id="dashboard-screens-1_linear" x1="244.923" y1="-29.2562" x2="299.998" y2="163.276" gradientUnits="userSpaceOnUse">
<stop offset="0.0014933" stop-color="#F4F7F9"/>
<stop offset="0.9992" stop-color="#DDE5ED"/>
</linearGradient>
<linearGradient id="dashboard-screens-2_linear" x1="179.459" y1="70.1341" x2="179.459" y2="135.877" gradientUnits="userSpaceOnUse">
<stop stop-color="#FF4633"/>
<stop offset="1" stop-color="#FFAEA6" stop-opacity="0.01"/>
<stop offset="1" stop-color="#001BB8"/>
<stop offset="1" stop-color="#07074E"/>
</linearGradient>
<linearGradient id="dashboard-screens-3_linear" x1="185.133" y1="144.68" x2="246.585" y2="301.137" gradientUnits="userSpaceOnUse">
<stop offset="0.0014933" stop-color="#F4F7F9"/>
<stop offset="0.9992" stop-color="#DDE5ED"/>
</linearGradient>
<linearGradient id="dashboard-screens-4_linear" x1="351.255" y1="150.402" x2="426.254" y2="280.819" gradientUnits="userSpaceOnUse">
<stop offset="0.0014933" stop-color="#F4F7F9"/>
<stop offset="0.9992" stop-color="#DDE5ED"/>
</linearGradient>
</defs>
</svg>
