<svg viewBox="0 0 19 21" xmlns="http://www.w3.org/2000/svg">
<path d="M10.4484 0.0758583C10.8216 0.237896 11.0434 0.626626 10.9929 1.03042L10.2051 7.33338H17.4167C17.7724 7.33338 18.0959 7.53914 18.2468 7.86124C18.3977 8.18334 18.3486 8.56364 18.1209 8.83689L8.95421 19.8369C8.6937 20.1495 8.25828 20.2529 7.885 20.0909C7.51172 19.9289 7.28995 19.5401 7.34042 19.1364L8.12829 12.8334H0.916678C0.560995 12.8334 0.237419 12.6276 0.0865542 12.3055C-0.0643106 11.9834 -0.0152276 11.6031 0.212475 11.3299L9.37914 0.329882C9.63965 0.0172676 10.0751 -0.0861798 10.4484 0.0758583ZM2.8738 11.0001H9.16668C9.42961 11.0001 9.67988 11.113 9.85388 11.3101C10.0279 11.5072 10.1089 11.7695 10.0763 12.0304L9.54741 16.2613L15.4596 9.16672H9.16668C8.90375 9.16672 8.65348 9.05382 8.47947 8.8567C8.30547 8.65959 8.22448 8.39725 8.25709 8.13635L8.78595 3.90547L2.8738 11.0001Z"/>
</svg>
