<svg viewBox="0 0 20 21" xmlns="http://www.w3.org/2000/svg">
<path d="M9.33216 1.19954C9.71213 0.858616 10.2879 0.858616 10.6678 1.19954C12.8274 3.13727 15.6676 4.13912 18.565 3.98526C19.0401 3.96002 19.4672 4.27307 19.5862 4.73376C19.856 5.77835 20 6.87235 20 7.99985C20 14.0592 15.8564 19.1473 10.2492 20.5903C10.0857 20.6324 9.91427 20.6324 9.75078 20.5903C4.14358 19.1473 3.6624e-06 14.0581 3.6624e-06 7.99985V7.99985C-0.000822756 6.89802 0.138215 5.80055 0.413784 4.73375C0.532784 4.27306 0.959901 3.96002 1.43503 3.98526C4.33245 4.13912 7.17256 3.13727 9.33216 1.19954ZM2.18125 5.99964C2.06022 6.65867 1.99946 7.3279 2 7.99903C2 13.0327 5.38222 17.2805 10 18.5861C14.6178 17.2806 18 13.0344 18 7.99985C18 7.31605 17.9376 6.64784 17.8187 5.99964C14.9817 5.96355 12.234 4.99644 10 3.24803C7.76597 4.99646 5.01825 5.96356 2.18125 5.99964ZM13.7071 8.29274C14.0976 8.68326 14.0976 9.31643 13.7071 9.70695L9.70711 13.707C9.31659 14.0975 8.68342 14.0975 8.2929 13.707L6.2929 11.707C5.90237 11.3164 5.90237 10.6833 6.2929 10.2927C6.68342 9.90222 7.31659 9.90222 7.70711 10.2927L9 11.5856L12.2929 8.29274C12.6834 7.90222 13.3166 7.90222 13.7071 8.29274Z"/>
</svg>
