<svg viewBox="0 0 22 18" xmlns="http://www.w3.org/2000/svg">
<path d="M20 0H2C0.9 0 0 0.9 0 2V14C0 15.1 0.9 16 2 16H7.00001V17C7.00001 17.55 7.45001 18 7.99999 18H14C14.5501 18 15.0001 17.55 15.0001 17V16H20C21.1001 16 21.99 15.1 21.99 14L22.0001 2C22.0001 0.890002 21.1001 0 20 0ZM19.0001 14H3C2.45 14 2 13.55 2 13V3C2 2.45 2.45 2 3 2H19.0001C19.55 2 20 2.45 20 3V13C20 13.55 19.55 14 19.0001 14ZM13.4801 8.87003L9.49999 11.15C8.83001 11.53 7.99999 11.04 7.99999 10.28V5.72003C7.99999 4.95 8.83001 4.47 9.49999 4.85002L13.4801 7.13002C14.15 7.52002 14.15 8.48003 13.4801 8.87003Z"/>
</svg>
