<svg viewBox="0 0 20 16" xmlns="http://www.w3.org/2000/svg">
<path d="M4.34319 0.92864C4.73371 1.31917 4.73371 1.95233 4.34318 2.34285C3.6003 3.08572 3.01102 3.96764 2.60897 4.93825C2.20693 5.90886 2 6.94916 2 7.99974C2 9.05033 2.20693 10.0906 2.60897 11.0612C3.01102 12.0318 3.6003 12.9138 4.34318 13.6566C4.73371 14.0472 4.73371 14.6803 4.34319 15.0708C3.95267 15.4614 3.3195 15.4614 2.92898 15.0709C2.00038 14.1423 1.26377 13.0399 0.761216 11.8266C0.258662 10.6133 0 9.31297 0 7.99974C0 6.68651 0.258662 5.38614 0.761216 4.17288C1.26377 2.95961 2.00038 1.85722 2.92898 0.928631C3.3195 0.538109 3.95267 0.538113 4.34319 0.92864ZM15.657 0.92864C16.0475 0.538113 16.6807 0.538109 17.0712 0.928631C17.9998 1.85722 18.7364 2.95962 19.2389 4.17288C19.7415 5.38614 20.0002 6.68651 20.0002 7.99974C20.0002 9.31297 19.7415 10.6133 19.2389 11.8266C18.7364 13.0399 17.9998 14.1423 17.0712 15.0709C16.6807 15.4614 16.0475 15.4614 15.657 15.0708C15.2664 14.6803 15.2664 14.0472 15.657 13.6566C16.3999 12.9138 16.9891 12.0318 17.3912 11.0612C17.7932 10.0906 18.0002 9.05033 18.0002 7.99974C18.0002 6.94916 17.7932 5.90886 17.3912 4.93825C16.9891 3.96764 16.3999 3.08572 15.657 2.34285C15.2664 1.95233 15.2664 1.31917 15.657 0.92864ZM7.17108 3.75753C7.56166 4.14799 7.56176 4.78116 7.17129 5.17174C6.42141 5.92185 6.00015 6.93909 6.00015 7.99974C6.00015 9.0604 6.42141 10.0776 7.17129 10.8277C7.56176 11.2183 7.56166 11.8515 7.17108 12.242C6.78049 12.6324 6.14733 12.6323 5.75686 12.2417C4.63204 11.1166 4.00015 9.59073 4.00015 7.99974C4.00015 6.40876 4.63204 4.88291 5.75686 3.75774C6.14733 3.36716 6.78049 3.36706 7.17108 3.75753ZM12.8291 3.75753C13.2197 3.36706 13.8528 3.36716 14.2433 3.75774C15.3681 4.88291 16 6.40876 16 7.99974C16 9.59073 15.3681 11.1166 14.2433 12.2417C13.8528 12.6323 13.2197 12.6324 12.8291 12.242C12.4385 11.8515 12.4384 11.2183 12.8289 10.8277C13.5787 10.0776 14 9.0604 14 7.99974C14 6.93909 13.5787 5.92185 12.8289 5.17174C12.4384 4.78116 12.4385 4.14799 12.8291 3.75753ZM8.58587 6.58553C8.96094 6.21046 9.46964 5.99974 10.0001 5.99974C10.5305 5.99974 11.0392 6.21046 11.4143 6.58553C11.7894 6.9606 12.0001 7.46931 12.0001 7.99974C12.0001 8.53018 11.7894 9.03888 11.4143 9.41396C11.0392 9.78903 10.5305 9.99974 10.0001 9.99974C9.46964 9.99974 8.96094 9.78903 8.58587 9.41396C8.21079 9.03888 8.00008 8.53018 8.00008 7.99974C8.00008 7.46931 8.21079 6.9606 8.58587 6.58553Z"/>
</svg>
